<svg width="95" height="95" viewBox="0 0 95 95" fill="none" xmlns="http://www.w3.org/2000/svg">
<path d="M47.5011 66.046L65.1382 53.2312L81.1983 58.547L85.3664 76.1859C84.0625 77.8999 82.6365 79.5388 81.0877 81.0879C75.9023 86.2731 69.7281 90.1087 62.9916 92.4253L47.4999 82.8819L47.5011 66.046Z" fill="#F6F9F9"/>
<path d="M47.5001 66.0459L29.8617 53.2309L36.5991 32.4961H58.4009L65.1383 53.2309L47.5001 66.0459Z" fill="#135772"/>
<path d="M29.8617 53.231L47.4999 66.0458V82.8815L32.0411 92.4362C25.2919 90.1207 19.1061 86.2812 13.9124 81.0875C12.3758 79.5508 10.9606 77.9256 9.66504 76.2267L13.8158 58.4223L29.8617 53.231Z" fill="#F6F9F9"/>
<path d="M62.9916 92.425C58.0727 94.1167 52.8547 94.9999 47.4999 94.9999C42.1572 94.9999 36.9503 94.1206 32.0411 92.4363L47.4999 82.8816L62.9916 92.425Z" fill="#135772"/>
<path d="M36.5991 32.496L29.8619 53.2309L13.8158 58.4224L0.013031 46.4307C0.222333 36.8944 3.22704 27.8253 8.63844 20.1663L26.7928 18.8069L36.5991 32.496Z" fill="#ECECEF"/>
<path d="M58.4009 32.4961H36.5991L26.7928 18.8069L33.7016 2.02524C38.1183 0.691236 42.756 0 47.5001 0C52.25 0 56.8933 0.692722 61.315 2.02988L68.3468 18.8764L58.4009 32.4961Z" fill="#F6F9F9"/>
<path d="M81.1983 58.5468L65.1381 53.2311L58.4009 32.4962L68.3465 18.8767L86.4132 20.2399C91.8105 27.9096 94.7979 36.9872 94.9881 46.5289L81.1983 58.5468Z" fill="#ECECEF"/>
<path d="M9.66505 76.227C3.39638 68.0061 0 58.015 0 47.5003C0 47.1431 0.00520006 46.7867 0.0130001 46.4309L13.8158 58.4226L9.66505 76.227Z" fill="#135772"/>
<path d="M8.6384 20.1665C10.1995 17.957 11.9603 15.8645 13.9124 13.9125C19.5294 8.29549 26.3056 4.25894 33.7014 2.02515L26.7925 18.8068L8.6384 20.1665Z" fill="#135772"/>
<path d="M86.4134 20.2399L68.3467 18.8767L61.3149 2.03003C68.7044 4.26475 75.4747 8.29963 81.0876 13.9125C83.0614 15.8863 84.8394 18.0033 86.4134 20.2399Z" fill="#135772"/>
<path d="M94.9883 46.5288C94.9948 46.8521 95.0002 47.1757 95.0002 47.5001C95.0002 57.9972 91.6151 67.9727 85.3665 76.1857L81.1985 58.5467L94.9883 46.5288Z" fill="#135772"/>
<path d="M47.5011 66.046L65.1382 53.2312L81.1983 58.547L85.3664 76.1859C84.0625 77.8999 82.6365 79.5388 81.0877 81.0879C75.9023 86.2731 69.7281 90.1087 62.9916 92.4253L47.4999 82.8819L47.5011 66.046Z" fill="#ECECEF"/>
<path d="M81.1983 58.5468L65.1381 53.2311L58.4009 32.4962L68.3465 18.8767L86.4132 20.2399C91.8105 27.9096 94.7979 36.9872 94.9881 46.5289L81.1983 58.5468Z" fill="#DDDDDF"/>
<path d="M86.4134 20.2396L68.3467 18.8765L61.3149 2.02979C68.7044 4.26451 75.4747 8.29938 81.0876 13.9123C83.0614 15.8861 84.8394 18.0031 86.4134 20.2396Z" fill="#093F61"/>
<path d="M94.9883 46.5288C94.9948 46.8521 95.0002 47.1757 95.0002 47.5001C95.0002 57.9972 91.6151 67.9727 85.3665 76.1857L81.1985 58.5467L94.9883 46.5288Z" fill="#093F61"/>
<path d="M47.5001 94.9999C52.8546 94.9999 58.0727 94.1167 62.9918 92.425L47.5001 82.8816V94.9999Z" fill="#093F61"/>
<path d="M68.3467 18.8766L61.3149 2.02988C56.8932 0.692722 52.2499 0 47.5001 0V32.4961H58.401L68.3467 18.8766Z" fill="#ECECEF"/>
<path d="M58.4009 32.4961H47.5001V66.0459L65.1383 53.2309L58.4009 32.4961Z" fill="#093F61"/>
</svg>
